<?xml version="1.0" encoding="UTF-8"?>
<svg id="black_Bcompany" xmlns="http://www.w3.org/2000/svg" xmlns:xlink="http://www.w3.org/1999/xlink" viewBox="0 0 1065.33 373.47">
  <defs>
    <clipPath id="clippath">
      <path d="M237.67,153.99c-1.13-6.88-2.87-13.55-6.36-19.03-11.62-18.18-44.95-23.4-63.91-25.35,13.15-8.68,25.84-15.43,37.75-25.12,5.64-4.59,11.3-8.43,15.76-14.68-1.92-1.63-2.1,1.89-4.32,1.29,2.08-3.53,5.33-5.88,8.14-9.09,4.27-4.86,6.36-11.3,9.74-17.58,1.98,1.08-.16,2.83.36,4.93,4.82-2.95,4.78-18.76,3.24-18.57l-1.86.23c-2.54.31.32-4.41.17-5.95-.61-6.01-5.79-8.97-9.9-11.93-8.57-6.16-18.31-7.34-28.25-9.16-19.32-3.53-38.51-3.18-58.1-.42-5.61.79-10.66-.29-16.21.46l-14.12,1.9c-3.4.46-7.21-1.59-9.95-2.7-5.72-2.31-6.68,6.51-9.73,7.65l-22.45,8.38c-2.57-7.28-18.7,5.26-21.81,8.25-2.84,2.72-4.14,4.53-4.83,9.09-.6,3.95-.93,7.4.71,11.06,2.46,5.48,10.46,5.91,12.71,6.72,2.65.94,5.39,3.63,8.43,2.65l21.29-6.86c-.08,5.03-1.88,9.32-3.44,13.95-6.6,19.59-13.9,38.32-21.45,57.61-6.99,2.5-13.32,4.63-19.57,9.09.16,11.45-2.55,13.64,6.96,22.37-10.83,27.66-21.32,49.9-33.49,76.41-2.18,2.53-10.3-1.74-12.75,4.68-1.75,4.6,2.54,14.97,5.86,17.42l12.04,8.87,4.56,1.36c1.87.56,3.19-2.73,5.08-2.92,53.7-5.07,151.43-33.5,193.3-73.88.99-1.07-.03-3.99,1.73-5.07,2.56-1.58,4.78-.03,7.5-7.77.76-2.17,2.16-1.72,3.03-2.79,3.13-3.87,5.02-10.21,4.15-15.49ZM168.89,113.01c5.38-.09,10.31-.55,15.45.9,4.03,1.14,8.38.39,11.93,2.59,1.17.72,2.38,1.03,4.1,1.85-2.06.97-3.97-.12-5.95-.01l-.37-.07c-2.7-.97-5.07-1.16-7.68-.86l5,.44c2.56.91,2.93.93,3.57,1.35.6.04.9-.18,1.02,1.21-1.98-.27-3.59.09-5.05-.38-1.38-.44-2.65-1.08-4.08-1.36-9.16-1.8-18.31-2.67-28.27-3.57,3.01-3.6,6.7-2.03,10.31-2.09ZM168.44,99c-2.18,1.77-4.26,2.49-6.19,3.46-1.07.54-2.56,1.55-3.17.33-.25-1.11,1.78-1.29,2.43-1.39,1.87-1.8,4.41-2.48,6.19-3.46,2.07-1.17,3.48-2.94,5.54-3.23-1.24,3.07-3.33,3.11-4.79,4.29ZM229,49.06c-.11,5.92-4.04,8.95-6.73,12.65-1.14,1.57-1.97,3.2-3.79,2.56,1.04-1.52,1.97-2.55,2.92-3.64,2.96-3.89,5.09-7.53,7.6-11.57ZM225.86,15.36c-2.62,1.08-3.77-1.56-6.14-2.48,1.99-.76,4.64-.44,6.14,2.48ZM135.38,7.91c2.13.07,6.25-.97,8.51-1.25,3.96-.48,7.94-1.48,11.84-.95l1.69.1c.55.03,1.12-.49,1.7-.52l21.91-1.1c7.98-.4,31.17,1.82,37.26,7.71-2.77-.04-5.32-.71-7.57-1.31-1.35-.36-3.32-1.71-4.92-1.45l-.37-.06c-1.07-.4-2.45-2.82-3.84-.56l3.86.57c.15.03.25.06.37.06.89.91,1.96,1.52,3.24,1.29-.02.99,1.08,1.94,1.58,1.14.39.08.98-.24,1.67.54-1.54,1.98-3.01-.54-4.17-.77-23.03-4.44-27.87-2.1-48.43-3.14-.11.02-.22.02-.32,0-2.25.08-5.52,1.99-7.17-.83l-7.59.33c-2.82.12-5.73,1.62-8.68,1.33-.16.39-.28,1.4-.64,1.48-.54.13-1.75-.75-1.64-1.32.12-.62,1.23-1.33,1.71-1.32ZM110.46,72.97c4.13-10.74,7.77-21.24,9.76-32.47l25.43-5.01-5.97-1.93c19.83-4.27,45.14-7.17,64.03.36,1.38.55,2,2.49,1.23,4.01-5.54,11.03-20.81,21.43-29.23,26.7-10.98,6.88-21.43,14.61-32.78,19.21-2,.78-3.78,1.9-5.34,3.36-2.73.96-5.27,2.71-8.22,4.06l-28.63,13.07M101.96,87.97c.37,1.76.13,2.47-.38,5.06-2.37-1.19-.76-3.44.38-5.06ZM96.75,102.7c.16-2.08,1.1-3,1.61-5.01.86,1.83.51,4.36-1.61,5.01ZM98.51,89.37c-1.08,6.84-2.86,13.25-6.89,19.11,1.31-6.63,3.89-12.87,6.89-19.11ZM95.21,242.76c-1.44,1.28-2.52,2.62-4.42,1.2,1.48-.83,2.95-1.44,4.42-1.2,1.09-.97,2.6-1.73,4.36-1.58-.81,2.21-2.32,1.96-4.36,1.58ZM118.48,236.02c-2.04.75-3.93,2.01-6.08,2.26-2.74.32-4.67,2.3-6.84,1.4-1.26.65-2.49,2.09-4.43,1.43,1.19-1.91,2.98-1.79,4.52-2.42,2.22-.92,4.44-.54,6.01-1.47,2.25-1.33,4.16-1.69,6.1-2.46,2.33-.01,4.1-2.7,7.11-1.73-1.59,3.31-4.39,2.27-6.38,3ZM76.93,241.24c-1.12.25-2.42-.03-3.39-1.1,4.31,0,8.38-1.95,12.87-3.21l40.56-11.38c.59-.29.65-1.45,1.3-1.65,17.67-5.42,34.22-13.58,51.08-20.75,1.27-1.01,2.68-1.35,3.45-.06-1.47.37-2.4.48-3.29.92-.07.04-.15.08-.25.13-15.64,8.95-31.8,14.53-47.95,20.98-1.7.68-3.06.07-4.34.42-15.75,7.89-32.91,11.86-50.04,15.69ZM183.07,208.49c-2.62,2.6-5.95,3.15-8.86,5.22-2.36,1.68-5.3,2.48-7.85,3.31-.82.58-1.65,1.54-2.68,1.77-.86.19-1.67.85-2.59.77-.86,1.46-2.26,1.33-3.51,1.69-.78.23-1.84.46-2.59.77-.8.33-1.68,1.07-2.59.77-.59.96-22.22,10.86-22.6,7.54l21.76-7.61c.57-1.23,1.85-1.1,2.68-1.77,1.08-.87,2.34-.26,3.42-.7.89-.36,1.62-1.55,2.68-1.77.76-.16,1.89-.49,2.59-.77.89-.63,1.6-1.47,2.68-1.77,2.73-.76,5.21-2.23,7.85-3.31,2.87-1.17,5.51-4.16,8.77-4.23.99-.24,1.8-2.61,3.53-1.58-.38,1.8-1.95,1.25-2.69,1.66ZM85.44,151.63l23.64-7.62c5.6-1.49,11.15-1.48,16.77-2.96,3.78-1,7.37.88,11.32-1-.3-1.24-1.7-.88-2.43-1.65,1.7-2.12,3.35-.25,5.04-.34l13.29-.74c12.42-.69,26.67-.71,38.72,3.64,4.5,1.62,11.01,2.68,12.9,8.75.86,2.75-3.27,6.81-5.11,8.67-12.98,13.09-27.91,20.83-43.55,28.23-20.48,9.69-40.89,16.66-62.05,24.11l-39.36,10.53" fill="#040000"/>
    </clipPath>
  </defs>
  <path id="any" d="M987.72,174.28l42.02-8.43-2.09-1.34c13.19-2.82,24.18-4.37,37.69-5.62-16.34-1.61-32.6-.15-48.98,2.28l-20.42,3.02-13.73,2.43c-10.47,1.85-20.49,3.48-30.99,5.58-11.97,2.4-23.42,5.1-35.08,8.55l-6.03,1.78-6.5,1.79c-8.4,2.32-16.43,5.11-24.97,8.6-.76-2.42,1.04-3.86,1.94-5.72l16.75-34.62c2.23-4.6,5.02-8.53,7.05-13.25,1.3-3.01,2.89-5.79,4.58-8.59,2.24-.56-3.58,9.96-3.72,10.24l-3.72,7.6c-1.66,3.4-2.94,6.86-5.17,10.02-1.2,1.7-1.84,3.63-2.36,5.59-.96,3.62-4.06,6.25-4.24,10.41,2.66-1.99,2.97-5.27,4.33-7.76l5.39-9.82c1.44-2.62,2.43-4.96,3.88-7.56,3.76-6.74,6.81-13.75,10.09-20.76.69-1.47-.02-3.15,1.86-4.16.98-.52.84-2.46,1.45-3.39,2.55-3.84,9.58-14.65,5.24-18.28-8.05-6.74,1.05-.45-9.98-6.27-4.13-2.18-11.32-1.66-16.06-.26l-3.3,3.2c-1.05,1.02-1.11,1.86-1.05,3.01.09,1.77-2.21,2.88-2.41,4.57-.27,2.2-1.44,3.37-2.51,5.08l-10.19,16.42c-.59.94-8.49,11.47-8.51,11.49l-4.05,3.83c-1.97,1.86-3.74,4.69-5.76,6.62-2.34,2.23-4.52,4.1-6.6,6.47-2.18,2.48-18.02,15.81-21.53,14.39-3.22-1.31-1.2-9.32-.78-11.54.81-4.24,2.79-7.6,4.34-11.46l2.27-5.64,2.64-7.02c.89-2.37,2.31-5.26.82-7.85-1.66-2.88-5.14-5.99-8.55-6.68-4.33-.87-8.24,1.99-11.8,3.54-2.88,1.26-4.81,2.9-7.14,4.88l-7.37,6.26c-5.79,4.92-11.16,11.75-16.84,16.66-.41-1.38.06-2.51.93-3.44,2.42-2.59,3.17-6.2,5.19-8.94,1.12-1.52.85-2.37,1.21-3.94.82-3.55,4.38-6.74,4.27-10.64-.11-4-4.51-6.04-7.53-7.28-2.04-.84-2.93-.41-4.68-.26-3.03.25-3.16,1.38-4.34,3.56l-6.93,12.77c-1.99,3.67-4.22,7.1-6.51,10.59-.86,1.32-2.02,2.54-2.87,3.87l-2.66,4.17c-1.43,2.25-3.64,3.45-4.8,6.08-.58,1.32-2.43,2.2-3.37,3.37-3.84,4.78-8.44,8.57-13.88,11.42-.55.29-1.23.15-1.54,0-.32-.16-.67-.91-.75-1.52-1.48-10.8,6.85-28.18,13.05-37.23.81-1.18,2.18-3.63,1.4-4.89-.89-1.44-1.85-3.28-2.85-4.26-.53-.52-2.27-.29-2.8-1.12-2.22-3.44-5.67-.61-7.67-.55-2.72-1.15-5.57-3.75-9.15-3.84-2.06-.05-3.84-1.78-6.53-1.16-6.55,1.51-12.58,4.13-18.17,8.17-11.42,8.26-20.62,18.73-27.93,30.78-3.47,5.71-5.45,11.78-6.2,18.34-.94,8.23,3.63,15.39,11.62,17.59,2.11.58,4.86,1.84,6.91.4,1.31-.92,2.68-1.08,3.97-1.72,1.4-.69,2.38-2.16,4.11-2.83,7.65-2.96,3.73-4.72,8.04-6.65.27-.12.23-1.03.63-1.04.29-.01.99.29,1.24,0,.28-.31-.34-1.19-.01-1.45l1.33-1.03c-1.23.96,10.06-14.14,10.18-12.82-.09,6.61-.06,12.42,4.68,17.66,3.06,3.39,8.42,5.65,13.02,4.76,3.73-.72,7.55-2.37,10.15-4.62.58-1.09,1.1-3.67,2.98-3.42.24.03.59.87.78.83.47-.11.28-.92.24-1.58.77-2.24,2.96-3.46,4.32-5.36,1.46-2.05,2.12-4.63,4.63-5.85-.24,3.15-2.43,5.38-2.96,8.23-.66,3.53,2.24,5.63,4.51,7.52,2,1.67,3.22,2.63,5.82,2.8,1.62.1,3.35,1.82,5.09.15,1.76-1.69,3.18-3.95,4.12-6.32,1.59-4,25.62-34.05,29.77-36.86-.02.01,9.29-9.33,12.86-10.03-1.76,6.61-5.21,11.55-7.37,17.46-3.6,9.81-9.17,23.32.73,31.84,6.59,5.67,17.07,4.41,23.47-.27l8.92-6.52c1.64-1.2,3.41-2.63,4.89-4.16l13.92-14.31c.01,3.61-2.62,5.67-3.67,8.54-1.44,3.96-4.18,7.16-5.98,10.87-1.08,2.24-1.32,4.65-2.65,6.97-3.92,6.82-6.65,14.75-11.15,21.23-8.31,5.04-17.87,8.03-25.99,13.53-1.64,1.11-2.94,2.01-4.8,2.75-2.31.92-3.92,2.97-6.19,4.08-3.62,1.78-6.58,4.39-10.03,6.43-5.55,3.28-22.17,15.43-27.08,19.69l-16.99,14.73c-7.41,6.42-14.07,13.06-20.45,20.5l-7.64,8.9-8.84,12.07c-4.04,5.52-12.92,19.48-14.43,25.54l-1.43,5.7c-2.62,10.45-.43,24.75,10.81,29.73.65.29,1.4,1.24,2.21,1.07.67-.14,2-.54,1.87-1.47-3.35-1.7-6.27-3.87-8.68-6.56-.34-.38.86-1.02.82-1.35-.03-.26-1.81-2.92-2.6-5.51,1.7.6,1.62,2.27,2.53,3.54,1.16,1.62,1.36.43,3.84,4.01,1.45,2.09,4.48,4.23,6.45,5.13l-.89.78c-.25.22-.44.46-.28.59.3.24.49.37.76.48l.92.37c.42.17-.43,1.05-.82.73-.21-.17-.52-.29-1.07-.48-.57-.2-.8.19-.41.63,1.01.23,1.75.54,2.5.45-.08-1.38.76-1.01,1.54-.92.69.08.67.97.87,1.5.85.29,2.39-.77,3.3-.38,3.6,1.53,6.21-.54,9.29-1.45,2.7-.79,18.54-3.87,16.8-8.29,4.91-2.11,9.45-5.65,14.13-8.48,1.62-.98,5.05.12,5.86-2.9l1.38.54c.52.2.12.87-.53,1.28-4.07,2.53-3.26,4.59-5.38,2.99l-11.22,7.21c-.5.32-1.8.58-1.56,1.15l.69,1.59c1.98-.19,3.05-2,4.81-2.99,5.52-3.11,10.3-6.84,15.12-11-.21-.65-.61-1.11-.3-1.51,1.18-1.48,3.07-.62,3.45-1.16.1-.14-.31-.64-.17-.87,1.2-2.08,5.16-2.68,8.7-7.03.18-.22.43-.32.71-.5.41-.27.22-.55-.29-.65-.38-2.28,1.94-3.02,3.7-3.83,1.86-.85,2.45-3.12,4.22-4.28-1.4.84-2.69,1.47-3.51,2.77.03-.05-7.57,4.53-7.74,2.54,4.3-2.99,6.97-6.69,10.41-10.08,2.27-2.24,5.16-3.81,7.24-6.32.61-.73-.24-1.53-.04-1.95,2.51-5.11,7.7-8.84,10.72-13.94,1.58-2.66,4.3-4.27,6.07-6.57.9-1.17.54-3.93,2.84-4.67.06-2.86,2.44-4.88,4.33-6.24.22-1.84,1.05-3.41,2.27-4.45,2.1-1.78,2.73-4.31,4.2-6.48l9.13-13.53,3.5-5.64c.73-1.18,1.3-1.82,2.03-3.1l7.06-12.39c.52-.92.44-1.77,1.16-2.98l4.2-6.99c.67-.07,1.29.67,1.91-.27-.67-.66-1.47-.87-1.31-1.29.21-.55.42-.95.7-1.08.54-.24,1.04.22,1.14,1.17.45-.26.95-.85.82-1.28-.11-.36-1.55-.87-1.3-1.4,3.61-7.72,2.96-9.13,10.48-11.04-2.58,6.73-7.17,11.66-9.58,17.19l-1.24-1.25c.88,1.98-.76,2.57-1.22,3.68-.75,1.85-7.7,12.62-9.31,15.17l-12.75,20.21c-1.53,2.42-2.88,4.7-3.98,7.11,1.11,1.15-.08,3.33-1.11,4.56-5.32,6.35-6.51,10.37-11.29,14.28.52.78,1.04.8,1.34,1.16,2.79-1.19,8.42-10.28,10-13.47.35-.71,8.1-11.29,10.53-15.58.86-1.52,1.67-2.77,2.61-4.29l4.47-7.34c2.6-4.26,4.5-8.59,6.98-12.82,1.99-3.38,3.98-6.47,5.81-10.04l5.19-10.16c-.81,1.58,5.23-7.48,5.3-9.47l24.67-10.24,4.97-1.93,11.09-3.98c16.48-5.91,32.9-11.13,49.63-16.39,1.45-.45,15.05-4.45,13.61-3.7,1.9-.99,3.63-.86,5.62-1.27,1.39-.29,2.37-1.05,4.07-.98,2.12.08,4.36-1.37,7.06-1.4-.86-1.66-2.12.33-3.11-.21-.89-.48.23-1.9,1.16-2.08ZM1011.91,167.99c-1.73.48-3.48,1.37-5.71.7,1.71-.3,3.14-1.2,5.71-.7ZM1002.88,169.93c-.8.42-1.71.44-2.87.08.6-.61,1.37-.56,2.87-.08ZM732.84,133.24c-8.35,17.85-44.78,56.51-41.67,41.52,1.4-6.76,7.98-16.08,12.16-21.12,1.92-2.32,3.58-4.67,5.73-6.84l3.9-3.95c1.76-1.78,3.09-3.44,5.09-4.91,1.82-1.33,11.45-9.08,14.01-7.26.66.47,1.22,1.62.78,2.56ZM854.99,166.42c.33-.77.92-1.17,1.55-1.72.38.96.03,1.78-1.55,1.72ZM759.91,262.87c9.84-9.11,19.42-16.97,30.85-23.94,5.14-3.13,9.83-6.29,15.67-8.3-1.81,1.7-3.62,2.88-5.62,4.25l-13.24,9.08-9.4,6.5-4.51,3.51-15.15,12.31c-1.53,1.14-2.02,3.32-4.14,4.14-.29-.68-.88-1.18-1.04-1.42,1.84-2.48,4.44-4.16,6.58-6.14ZM737.27,314.69c-.37,1.66-1.32,1.69-2.05,3.28-.38-.04-.9-.89-1.03-1.58.44-1.3,1.91-1.8,3.08-1.7ZM824.74,239.27c-3.35,6.12-6.59,12.02-10.37,17.87-1.13,1.75-.82,7.39-2.51,4.15l-12.25,18.65c.34.44.86.74.84,1.01-.04.47-1.38,2.47-1.75,2.57-.25.06-.56-.4-1.14-.79l-10.36,13.04c-1.13,1.42-2.01,2.81-3.18,4.18l-11.74,13.72c-5.14,6.01-10.26,11.59-15.99,17.04-.95.91-.7,2.66-2.22,3.64l-6.19,4.03-9.59,6.31c-1.61,1.06-2.51,2.06-4.73,2.49-1.87.36-4.37,2-6.28.25-2.27-2.08-1.68-5.67-.94-8.42l1.62-6.07,4.24-8.55c-.78-.02-.98.63-1.61.98-.45-2.34,1.22-2.67,2.44-3.35,2.09-1.18,2.98-4.03,4.41-5.97l6.63-9.02c.55-.93.29-.94-.98-.94.36-1.45,1.42-2.35,2.34-3.64.57.29.32,1.07,1.51,1.26-.36-2.09.61-2.88,2.02-4.05,1.24-1.03,1.78-2.99,2.63-4.44,2.86-4.87,4.58-1.25,5.08-5.72,3.07-.67,3.69-2.96,5.19-5.64l4.46-3.27c14.57-10.67,26.95-24.37,41.71-35.05-.46-.54-.64-.88-.79-1.09-.28-.37-.06-.75.45-1.08.3-.19.82.44,1.26.38,2.42-.33,3.65-2.97,5.66-4.11l13.74-7.83c-.01,3.17-2.3,5.05-3.61,7.45ZM841.14,251.25l6.18-10.33c2.09-1.13-7.22,13.62-6.18,10.33ZM886.23,166.65c.02-.62.24-.86.88-1.4,1.01-.94-.97,4.41-.88,1.4ZM874.06,193.68c.18-1.98,1.92-3.09,2.6-4.85-1.03-1.63-.57-3.02.45-4.71l2.46-4.07c.94,1.2-1.14,1.94.06,3.13,1.26-3.29,2.29-6.41,4.79-9.01.74-.77.54-2.56,2.15-2.59-.63,2.9-10.15,21.78-10.62,22.06-.47.27-1.69.66-1.89.06Z" fill="#040000"/>
  <path id="comp" d="M513.99,349.5c.05,1.14-1.16,2-1.5,2.93,2.81,6.7-1.23,2.03,3.12,9.69,1.51.71,2.51,2.35,3.63,3.58.82.91,2.96,1.66,4.2,2.5.69.47,2.49.54,3.33.64,1.74.21,2.87-2.18,2.54-3.8-.71-3.58,1.25-9.46,1.19-10.88-.1-2.63,1.91-4.89,2.19-7.43.42-3.9,4.76-15.95,6.58-20.21-.58-.62-1.1-.58-1.28-.37-.24.28-.28,1.13-1.33,1.33.47-5.4,3.37-10.31,5.32-15.68,1.01-2.78,1.88-5.5,3.33-8.25.12-1.29,1.18-1.21.91.53,2.65-1.96,4.01-4.61,5.38-7.84l4.18-9.8c.55-1.3,2.5-1.95,1.97-3.45-.8-2.25,3.14-4.86,2.95-6.6l-.19-1.77c-.03-.24.96-.39,1.17-.81,1.83-3.76,2.64-7.99,4.91-11.62,1-1.6,2.22-2.45,2.01-5.27,1.74,1.59.75,3.69-.31,5.07-.78,1.01-2.72,8.71-3.08,9.67-.8,2.12-2.94,3.88-2.22,6.69l6.8-16.17,7.59-18.02c1.62-3.84,2.94-7.52,4.7-11.34l10.42-22.59c2.65-5.75,4.45-11.1,7.65-17.22,3.63,4.83,8.21,5.17,13.15,5.78,2.04.25,3.55,1.22,6.17.63,9.68-2.19,6.46-2.2,15.38-6.11.32-.48-.1-1.35-.45-.46-2.41,1.15-4.78,2.72-7.67,2.41,2.32-1.96,5.07-1.99,7.38-3.62l13.04-9.25c1.15,2.52-11.63,8.78-10.03,9.59,2.47-1.15,4.12-2.85,6.08-4.49,3.37-2.81,7.24-5.11,9.99-8.63.76-.97,4.68-11.33,3.9-6l-.22,1.47c1.44.88,11.41-14.52,12.39-16.32,5.2-9.54,10.63-23.97,1.79-32.65-7.84-7.69-19.15-4.91-28.07.29-5.6,3.27-10.37,6.95-15.77,11.14,2.02-4.79,5.13-8.25,6.59-12.83.77-2.41-.25-3.87-1.82-5.48-1.38-1.42-2.13-3.84-4.22-4.62-8.64-3.25-9.29-1.15-12.4-.72-2.28.32-2.27,2.33-3.06,4.03l-3.53,7.57c-1.57,3.37-3.82,7.91-5.23,11.06l-1.95,4.33c-2.34,5.2-5.99,7.94-10.19,12.63-1.86,2.08-3.75,4.29-5.76,6.21-1.64,1.57-3.36,2.47-4.6,4.55-1.05,1.76-3.84,2.38-4.98,4.08-1.21,1.8-2.72,2.39-4.43,3.63-3.29,2.38-6.21,5.64-10.51,6.4-4.08.72,1.62-15.28,2.99-18.04l10.4-20.8,1.5-4.15c1.5-4.16-.05-7.75-3.21-10.17-8.19-6.27-14.19.15-18,1.48-2.37.83-8.59,6.14-10.8,8.03l-7.94,6.8c-2.07,1.77-4.03,3.5-5.98,5.59-.62.22-1.39-1.8-.83-2.21l1.39-1c1.2-1.89.94-4.24,2.09-6.39,2.13-3.96,3.5-9.45.37-13.35-3.07-3.82-9.2-3.88-13.62-2.14-12.36,4.84-19.41,14.36-29.12,23.23-.12-3.01,2.13-4.49,3.29-6.67,1.32-2.51,2.34-4.9,3.98-7.4,2-3.04,2.57-7.98-.37-10.47-5.58-4.86-15.75-1.59-21.5,1.54l-22.7,12.38c-1.78.97-3.11,1.95-5.68,2.33.4-3.69-1.02-6.36-1.96-9.27-2.38-7.39-15.35-13.35-24.2-8.64-1.85.98-2.89-.27-4.32-.93-3.22-1.47-7.23.35-9.69,2.55-1.06.95-2.64,1.18-3.38,2.24-1.17,1.68-2.57,2.69-3.93,4.1-4.51,4.65-7.95,10.22-9.84,12.23-2.27,2.41-3.71,5.03-5.24,7.93-.71,1.35-2.62,1.96-3.22,3.49-1.14,2.9-2.99,5.31-5.52,7.09-.72.51-.69,2.08-1.48,2.49-2.57,1.34-3.9,3.72-6.05,5.36l-4.22,3.22c-11.12,8.47-22.19,16.53-34.37,23.54-5.63,3.24-26.08,12.39-31,5.71-1.72-2.34-2.15-6.38-.93-8.69.29-.1,3.13-3.41,2.62-4.92-.1-.31-.57-.3-1.17-.68.16-1.03.76-2.2,1.64-2.52.32.17.67.89.86.69.42-.44,1.25-1.36,1.26-1.83,0-.2-.2-.35-.41-.29-3.05,1.01,1.95-5.5,2.73-5.94.39-.07.9.82,1.12.61-.15.14,2.07-2.64,2.13-2.79.16-.44-.68-.84-.78-1.28-.24-1.09,1.77-1.01,2.05-1.63.2-.45,4.75-7.37,5.49-7.09.4.8-.29,1.13-.41,1.71.89.41,1.36-.25,1.71-.76.3-.44-.67-.81-1.02-1.13.15-1.66,2.13-2.22,3.15-2.77,3.15-1.7,4.6-4.69,6.58-7,4.02-4.68,9.58-7.81,14.32-11.85.96-.82,13.93-8.87,15.71-7.84,1.94,1.28-2.34,8.68-3.96,9.51-1.41,5.41,8.07,8.06,10.62,6.98,9.2-3.91,15.56-13.14,17.49-22.54.9-4.37-1.27-6.85-3.79-9.43-5.31-5.42-5.93-4.04-7.34-4.59-2.62-1.01-4.46-1.69-7.47-1.61l-6.98.18c-1.29.03-12.04,4.07-11.14,4.28-.28-.06-.82-.8-1.13-.76-2.67.36-4.82,2.34-7.27,3.36-9.29,3.87-21.38,12.62-29.09,19.19l-4.61,3.93c-14.73,12.57-41.29,45.65-28.71,66.52,8.62,14.3,23.52,16.37,38.75,12.22,1.44-.39,2.59-.37,4.06-1.06,2.98-1.4,5.9-2.52,8.82-4.2,1.13-.65,7.9-2.8,8.37-5.84.05-.3.87-.71,1.16-.75.29-.04.64.56,1.06.89l10.96-7.9c3.36-2.42,6.3-4.92,9.41-7.63,1.55-1.36,3.88-2.03,4.66-4.19.19-.54,0-1.53.59-1.87.26-.15.94.4,1.34.13,1.71-1.15,2.72-2.83,4.79-3.92-.59-.36-1.18-.22-1.74-.68l7.4-6.53c-.55,6.37-.54,13.33,3.37,18.79.57.8,1.89,1.96,2.54,2.69,5.47,6.1,14.17,7.4,21.42,4.58,3.97-1.55,7.25-2.73,10.54-5.5,1.77-1.49,9.9-6.8,11.14-9.8-1.1.03-2.03,1.55-2.86.46-.43-.56,1.22-1.77,1.99-2.07.55-.21.95.69,1.98.77,2.58-2.47,4.72-4.95,6.8-7.59-1.56-.68-1.78,1.53-3.23.64,1.96-2.35,3.28-4.36,5.38-6.04.87,1.38-.99,1.71-.3,3.14,4.56-4.84,1.17-4.59,2.46-6.18.84-1.03,1.86.87,4.23-4.25-.08-1.82.51-2.16,1.71-3.4,1-1.03,1.55-2.84,2.44-4.12.56-.82-.18-2.62.94-3.74,1.35-1.35,1.74-3.79,2.59-5.52,7.17-3.19,13.73-6.87,20.45-10.81,3.98-2.33,7.48-4.85,12.25-6.41-4.31,9.44-6.53,11.14-10.91,20.56-.63,1.34-3.09,2.07-2.97,4.22.13,2.3-2.3,3.23-3.08,4.86-.58,1.22.48,3.4-1.45,4.44-.31.17-.43,1.37-1.09,1.17-.25-.08-.54-.39-1.09-.76-2.92,4.91-4.91,10.19-7.3,15.59-1.28,2.89-2.72,6.07-2.37,9.28.19,1.73,2.5,2.64,3.2,3.9,1.87,3.37,4.66,4.44,8.1,5.04,1.45.25,2.4,1.51,4.12.25.71-.52,2.79.41,3.25-1.25.52-1.85,2.36-3.58,2.75-5.5.78-3.89,2.5-6.98,4.82-10.2l11.44-15.87c1.43-1.98,2.71-3.66,4.33-5.47l5.08-5.7c3.64-4.08,13.98-15.88,19.39-17.5-.47,4.44-2.64,7.78-4.34,11.4l-6.61,14.06-3.47,6.79c-1.92,3.76-3.94,7.87-4,12.35-.04,3.01,3.36,5.7,5.87,6.5,1.79.57,2.47,1.87,4.36,1.8,2.54-.09,6.45-3.29,6.88-4.87.83-3.04,2.22-5.87,4.53-8.08,1.35-1.3,1.92-2.91,3.03-4.35,2.74-3.56,5.6-6.95,8.53-10.33l5.02-5.78,7.78-8.17c3.33-3.49,9.03-9.23,13.07-11.71.7,2.81-1.01,4.36-1.95,6.32-.62,1.28-.36,3.17-1.34,4.29-2.6,2.96-3.26,6.65-4.91,9.98-5.07,10.26-9.6,26.92,2.38,34.15,3,1.81,8.19,2.58,11.5,1.04,6.65-3.09,11.35-8.51,16.52-13.41,3.53-3.34.27-1.63,6.52-7.66,2.26-2.18,3.99-4.19,6-7.14.3,2.73-1.56,4.36-2.45,6.59-5.3,13.36-14.29,27.31-20.66,39.79l-5.18,10.14c-1.72,3.36-3.3,6.54-4.89,9.94l-7.62,16.28-4.47,10.37c-2.11,4.9-3.62,9.82-6.01,14.54l-1.71,3.39-4.76,13.54c-2.06,5.87-4.17,11.45-5.8,17.41l-2.39,8.72c-1.79,6.52-4.12,12.57-5.78,19.14M290.25,153.39c1.23-1.31,2.89-2.11,3.85-3.82.27,2.04-1.12,4.44-3.85,3.82ZM297.17,147.37c-1.13.17-1.66-.49-.39-.63.33-.38.29-.99.58-1.06.18-.04.45.47.61.56.42.22.01.69-.79,1.13ZM320.99,212.69c.74-.35,1.21-1.21,2.94-.7-.85.47-1.66,1.31-2.94.7ZM406.45,179.69c-4.23,4.14-9.37,8.66-15.27,8.91-2.55.11-2.69-4.23-2.69-5.91-.02-8.92,8.7-23.19,14.23-29.97,2.59-3.17,4.47-6.47,8.24-9.1,3.52,7.5,9.99,8.23,17.25,8.95-6.52,11-12.89,18.44-21.76,27.13ZM431.37,144.17c-3.25,1.05-7.15.67-8.72-2.16-1.8-3.25.38-6.45,2.78-8.77,1.73-1.67,5.26-3.26,6.99-.67,2.21,3.3.77,7.92-1.05,11.59ZM527.69,308.93l-.37,1.21c-.52,1.7-3.05-1.43,1.46-8.46,1.63,2.14-.35,4.87-1.09,7.25ZM529.44,301.75c-.68-1.68.09-3.4,1.18-4.47-.03,1.64-.04,3-1.18,4.47ZM543.83,270c-.35,2.79-1.42,5.06-2.86,7.7-1.78,3.25-2.01,6.93-4.55,9.55.29-2.54,5.02-12.99,5.09-13.8.23-2.34,2.39-3.94,2.74-6.14,1.04,1.17-.32,1.85-.43,2.7ZM545.3,265.36c.76-3.81,2.68-6.61,3.83-10.01.43-1.27.25-2.79,1.94-3.29-.76,2.55-4.42,12.2-5.76,13.3ZM551.6,250.44c.12-2.82,1.83-4.6,2.65-6.98.24,2.84-1.38,4.79-2.65,6.98ZM649.46,181.33c-.67.46-.91.78-1.08.94-.13.12-.73.13-.8-.27-.05-.28.78-.65.95-1.05.62-.71,1.6-.41.93.39ZM656.82,136.6c-3.48,10.18-9.13,19.53-16.78,27.21-7.04,7.07-14.59,13.04-23.4,17.61-2.28,1.18-4.88,1.64-7.26,2.42-1.33.44-2.66-.39-3.31-1.04-.86-.86-1.13-2.2-.31-3.44.38-1.29.87-.72,1.23.88l3.41-7.49c.17-.37-.24-1.01-.19-1.38.06-.53.9-.47,1.21-.98.22-.35-.29-.93-.28-1.25.03-.63.72-1.14,1.31-1.28,1.71-.41.97-2.46,1.54-3.42l3.62-6.15c4.49-7.63,33.2-32.32,38.39-25.88.67.83,1.35,2.62.82,4.18Z" fill="#040000"/>
  <path id="dot" d="M253.02,199.3c-.22-3.51-.26-7.84-1.24-10.87-2.27-7.09-16.94-9.12-21.87-3.42-2.42.04-3.64,2.93-5.29,4.61-6.21,6.32-4.88,15.64-1.84,18.64,6.56,6.46,11.87,4.06,19.06.85.36-1.78,5.05-7.84,6.57-4.1,1.56-.42,4.77-3.19,4.61-5.7Z" fill="#040000"/>
  <path id="B" d="M237.72,152.58c-1.13-6.88-2.87-13.55-6.36-19.03-11.62-18.18-44.95-23.4-63.91-25.35,13.15-8.68,25.84-15.43,37.75-25.12,5.64-4.59,11.3-8.43,15.76-14.68-1.92-1.63-2.1,1.89-4.32,1.29,2.08-3.53,5.33-5.88,8.14-9.09,4.27-4.86,6.36-11.3,9.74-17.58,1.98,1.08-.16,2.83.36,4.93,4.82-2.95,4.78-18.76,3.24-18.57l-1.86.23c-2.54.31.32-4.41.17-5.95-.61-6.01-5.79-8.97-9.9-11.93-8.57-6.16-18.31-7.34-28.25-9.16-19.32-3.53-38.51-3.18-58.1-.42-5.61.79-10.66-.29-16.21.46l-14.12,1.9c-3.4.46-7.21-1.59-9.95-2.7-5.72-2.31-6.68,6.51-9.73,7.65l-22.45,8.38c-2.57-7.28-18.7,5.26-21.81,8.25-2.84,2.72-4.14,4.53-4.83,9.09-.6,3.95-.93,7.4.71,11.06,2.46,5.48,10.46,5.91,12.71,6.72,2.65.94,5.39,3.63,8.43,2.65l21.29-6.86c-.08,5.03-1.88,9.32-3.44,13.95-6.6,19.59-13.9,38.32-21.45,57.61-6.99,2.5-13.32,4.63-19.57,9.09.16,11.45-2.55,13.64,6.96,22.37-10.83,27.66-21.32,49.9-33.49,76.41-2.18,2.53-10.3-1.74-12.75,4.68-1.75,4.6,2.54,14.97,5.86,17.42l12.04,8.87,4.56,1.36c1.87.56,3.19-2.73,5.08-2.92,53.7-5.07,151.43-33.5,193.3-73.88.99-1.07-.03-3.99,1.73-5.07,2.56-1.58,4.78-.03,7.5-7.77.76-2.17,2.16-1.72,3.03-2.79,3.13-3.87,5.02-10.21,4.15-15.49ZM168.94,111.59c5.38-.09,10.31-.55,15.45.9,4.03,1.14,8.38.39,11.93,2.59,1.17.72,2.38,1.03,4.1,1.85-2.06.97-3.97-.12-5.95-.01l-.37-.07c-2.7-.97-5.07-1.16-7.68-.86l5,.44c2.56.91,2.93.93,3.57,1.35.6.04.9-.18,1.02,1.21-1.98-.27-3.59.09-5.05-.38-1.38-.44-2.65-1.08-4.08-1.36-9.16-1.8-18.31-2.67-28.27-3.57,3.01-3.6,6.7-2.03,10.31-2.09ZM168.49,97.58c-2.18,1.77-4.26,2.49-6.19,3.46-1.07.54-2.56,1.55-3.17.33-.25-1.11,1.78-1.29,2.43-1.39,1.87-1.8,4.41-2.48,6.19-3.46,2.07-1.17,3.48-2.94,5.54-3.23-1.24,3.07-3.33,3.11-4.79,4.29ZM229.05,47.64c-.11,5.92-4.04,8.95-6.73,12.65-1.14,1.57-1.97,3.2-3.79,2.56,1.04-1.52,1.97-2.55,2.92-3.64,2.96-3.89,5.09-7.53,7.6-11.57ZM225.91,13.94c-2.62,1.08-3.77-1.56-6.14-2.48,1.99-.76,4.64-.44,6.14,2.48ZM135.43,6.49c2.13.07,6.25-.97,8.51-1.25,3.96-.48,7.94-1.48,11.84-.95l1.69.1c.55.03,1.12-.49,1.7-.52l21.91-1.1c7.98-.4,31.17,1.82,37.26,7.71-2.77-.04-5.32-.71-7.57-1.31-1.35-.36-3.32-1.71-4.92-1.45l-.37-.06c-1.07-.4-2.45-2.82-3.84-.56l3.86.57c.15.03.25.06.37.06.89.91,1.96,1.52,3.24,1.29-.02.99,1.08,1.94,1.58,1.14.39.08.98-.24,1.67.54-1.54,1.98-3.01-.54-4.17-.77-23.03-4.44-27.87-2.1-48.43-3.14-.11.02-.22.02-.32,0-2.25.08-5.52,1.99-7.17-.83l-7.59.33c-2.82.12-5.73,1.62-8.68,1.33-.16.39-.28,1.4-.64,1.48-.54.13-1.75-.75-1.64-1.32.12-.62,1.23-1.33,1.71-1.32ZM110.51,71.56c4.13-10.74,7.77-21.24,9.76-32.47l25.43-5.01-5.97-1.93c19.83-4.27,45.14-7.17,64.03.36,1.38.55,2,2.49,1.23,4.01-5.54,11.03-20.81,21.43-29.23,26.7-10.98,6.88-21.43,14.61-32.78,19.21-2,.78-3.78,1.9-5.34,3.36-2.73.96-5.27,2.71-8.22,4.06l-28.63,13.07M102.01,86.55c.37,1.76.13,2.47-.38,5.06-2.37-1.19-.76-3.44.38-5.06ZM96.8,101.28c.16-2.08,1.1-3,1.61-5.01.86,1.83.51,4.36-1.61,5.01ZM98.56,87.96c-1.08,6.84-2.86,13.25-6.89,19.11,1.31-6.63,3.89-12.87,6.89-19.11ZM95.26,241.35c-1.44,1.28-2.52,2.62-4.42,1.2,1.48-.83,2.95-1.44,4.42-1.2,1.09-.97,2.6-1.73,4.36-1.58-.81,2.21-2.32,1.96-4.36,1.58ZM118.53,234.6c-2.04.75-3.93,2.01-6.08,2.26-2.74.32-4.67,2.3-6.84,1.4-1.26.65-2.49,2.09-4.43,1.43,1.19-1.91,2.98-1.79,4.52-2.42,2.22-.92,4.44-.54,6.01-1.47,2.25-1.33,4.16-1.69,6.1-2.46,2.33-.01,4.1-2.7,7.11-1.73-1.59,3.31-4.39,2.27-6.38,3ZM76.98,239.82c-1.12.25-2.42-.03-3.39-1.1,4.31,0,8.38-1.95,12.87-3.21l40.56-11.38c.59-.29.65-1.45,1.3-1.65,17.67-5.42,34.22-13.58,51.08-20.75,1.27-1.01,2.68-1.35,3.45-.06-1.47.37-2.4.48-3.29.92-.07.04-.15.08-.25.13-15.64,8.95-31.8,14.53-47.95,20.98-1.7.68-3.06.07-4.34.42-15.75,7.89-32.91,11.86-50.04,15.69ZM183.12,207.08c-2.62,2.6-5.95,3.15-8.86,5.22-2.36,1.68-5.3,2.48-7.85,3.31-.82.58-1.65,1.54-2.68,1.77-.86.19-1.67.85-2.59.77-.86,1.46-2.26,1.33-3.51,1.69-.78.23-1.84.46-2.59.77-.8.33-1.68,1.07-2.59.77-.59.96-22.22,10.86-22.6,7.54l21.76-7.61c.57-1.23,1.85-1.1,2.68-1.77,1.08-.87,2.34-.26,3.42-.7.89-.36,1.62-1.55,2.68-1.77.76-.16,1.89-.49,2.59-.77.89-.63,1.6-1.47,2.68-1.77,2.73-.76,5.21-2.23,7.85-3.31,2.87-1.17,5.51-4.16,8.77-4.23.99-.24,1.8-2.61,3.53-1.58-.38,1.8-1.95,1.25-2.69,1.66ZM85.49,150.21l23.64-7.62c5.6-1.49,11.15-1.48,16.77-2.96,3.78-1,7.37.88,11.32-1-.3-1.24-1.7-.88-2.43-1.65,1.7-2.12,3.35-.25,5.04-.34l13.29-.74c12.42-.69,26.67-.71,38.72,3.64,4.5,1.62,11.01,2.68,12.9,8.75.86,2.75-3.27,6.81-5.11,8.67-12.98,13.09-27.91,20.83-43.55,28.23-20.48,9.69-40.89,16.66-62.05,24.11l-39.36,10.53" fill="#040000"/>
  <g id="_4LINES" data-name="4LINES">
    <path d="M237.67,153.99c-1.13-6.88-2.87-13.55-6.36-19.03-11.62-18.18-44.95-23.4-63.91-25.35,13.15-8.68,25.84-15.43,37.75-25.12,5.64-4.59,11.3-8.43,15.76-14.68-1.92-1.63-2.1,1.89-4.32,1.29,2.08-3.53,5.33-5.88,8.14-9.09,4.27-4.86,6.36-11.3,9.74-17.58,1.98,1.08-.16,2.83.36,4.93,4.82-2.95,4.78-18.76,3.24-18.57l-1.86.23c-2.54.31.32-4.41.17-5.95-.61-6.01-5.79-8.97-9.9-11.93-8.57-6.16-18.31-7.34-28.25-9.16-19.32-3.53-38.51-3.18-58.1-.42-5.61.79-10.66-.29-16.21.46l-14.12,1.9c-3.4.46-7.21-1.59-9.95-2.7-5.72-2.31-6.68,6.51-9.73,7.65l-22.45,8.38c-2.57-7.28-18.7,5.26-21.81,8.25-2.84,2.72-4.14,4.53-4.83,9.09-.6,3.95-.93,7.4.71,11.06,2.46,5.48,10.46,5.91,12.71,6.72,2.65.94,5.39,3.63,8.43,2.65l21.29-6.86c-.08,5.03-1.88,9.32-3.44,13.95-6.6,19.59-13.9,38.32-21.45,57.61-6.99,2.5-13.32,4.63-19.57,9.09.16,11.45-2.55,13.64,6.96,22.37-10.83,27.66-21.32,49.9-33.49,76.41-2.18,2.53-10.3-1.74-12.75,4.68-1.75,4.6,2.54,14.97,5.86,17.42l12.04,8.87,4.56,1.36c1.87.56,3.19-2.73,5.08-2.92,53.7-5.07,151.43-33.5,193.3-73.88.99-1.07-.03-3.99,1.73-5.07,2.56-1.58,4.78-.03,7.5-7.77.76-2.17,2.16-1.72,3.03-2.79,3.13-3.87,5.02-10.21,4.15-15.49ZM168.89,113.01c5.38-.09,10.31-.55,15.45.9,4.03,1.14,8.38.39,11.93,2.59,1.17.72,2.38,1.03,4.1,1.85-2.06.97-3.97-.12-5.95-.01l-.37-.07c-2.7-.97-5.07-1.16-7.68-.86l5,.44c2.56.91,2.93.93,3.57,1.35.6.04.9-.18,1.02,1.21-1.98-.27-3.59.09-5.05-.38-1.38-.44-2.65-1.08-4.08-1.36-9.16-1.8-18.31-2.67-28.27-3.57,3.01-3.6,6.7-2.03,10.31-2.09ZM168.44,99c-2.18,1.77-4.26,2.49-6.19,3.46-1.07.54-2.56,1.55-3.17.33-.25-1.11,1.78-1.29,2.43-1.39,1.87-1.8,4.41-2.48,6.19-3.46,2.07-1.17,3.48-2.94,5.54-3.23-1.24,3.07-3.33,3.11-4.79,4.29ZM229,49.06c-.11,5.92-4.04,8.95-6.73,12.65-1.14,1.57-1.97,3.2-3.79,2.56,1.04-1.52,1.97-2.55,2.92-3.64,2.96-3.89,5.09-7.53,7.6-11.57ZM225.86,15.36c-2.62,1.08-3.77-1.56-6.14-2.48,1.99-.76,4.64-.44,6.14,2.48ZM135.38,7.91c2.13.07,6.25-.97,8.51-1.25,3.96-.48,7.94-1.48,11.84-.95l1.69.1c.55.03,1.12-.49,1.7-.52l21.91-1.1c7.98-.4,31.17,1.82,37.26,7.71-2.77-.04-5.32-.71-7.57-1.31-1.35-.36-3.32-1.71-4.92-1.45l-.37-.06c-1.07-.4-2.45-2.82-3.84-.56l3.86.57c.15.03.25.06.37.06.89.91,1.96,1.52,3.24,1.29-.02.99,1.08,1.94,1.58,1.14.39.08.98-.24,1.67.54-1.54,1.98-3.01-.54-4.17-.77-23.03-4.44-27.87-2.1-48.43-3.14-.11.02-.22.02-.32,0-2.25.08-5.52,1.99-7.17-.83l-7.59.33c-2.82.12-5.73,1.62-8.68,1.33-.16.39-.28,1.4-.64,1.48-.54.13-1.75-.75-1.64-1.32.12-.62,1.23-1.33,1.71-1.32ZM110.46,72.97c4.13-10.74,7.77-21.24,9.76-32.47l25.43-5.01-5.97-1.93c19.83-4.27,45.14-7.17,64.03.36,1.38.55,2,2.49,1.23,4.01-5.54,11.03-20.81,21.43-29.23,26.7-10.98,6.88-21.43,14.61-32.78,19.21-2,.78-3.78,1.9-5.34,3.36-2.73.96-5.27,2.71-8.22,4.06l-28.63,13.07M101.96,87.97c.37,1.76.13,2.47-.38,5.06-2.37-1.19-.76-3.44.38-5.06ZM96.75,102.7c.16-2.08,1.1-3,1.61-5.01.86,1.83.51,4.36-1.61,5.01ZM98.51,89.37c-1.08,6.84-2.86,13.25-6.89,19.11,1.31-6.63,3.89-12.87,6.89-19.11ZM95.21,242.76c-1.44,1.28-2.52,2.62-4.42,1.2,1.48-.83,2.95-1.44,4.42-1.2,1.09-.97,2.6-1.73,4.36-1.58-.81,2.21-2.32,1.96-4.36,1.58ZM118.48,236.02c-2.04.75-3.93,2.01-6.08,2.26-2.74.32-4.67,2.3-6.84,1.4-1.26.65-2.49,2.09-4.43,1.43,1.19-1.91,2.98-1.79,4.52-2.42,2.22-.92,4.44-.54,6.01-1.47,2.25-1.33,4.16-1.69,6.1-2.46,2.33-.01,4.1-2.7,7.11-1.73-1.59,3.31-4.39,2.27-6.38,3ZM76.93,241.24c-1.12.25-2.42-.03-3.39-1.1,4.31,0,8.38-1.95,12.87-3.21l40.56-11.38c.59-.29.65-1.45,1.3-1.65,17.67-5.42,34.22-13.58,51.08-20.75,1.27-1.01,2.68-1.35,3.45-.06-1.47.37-2.4.48-3.29.92-.07.04-.15.08-.25.13-15.64,8.95-31.8,14.53-47.95,20.98-1.7.68-3.06.07-4.34.42-15.75,7.89-32.91,11.86-50.04,15.69ZM183.07,208.49c-2.62,2.6-5.95,3.15-8.86,5.22-2.36,1.68-5.3,2.48-7.85,3.31-.82.58-1.65,1.54-2.68,1.77-.86.19-1.67.85-2.59.77-.86,1.46-2.26,1.33-3.51,1.69-.78.23-1.84.46-2.59.77-.8.33-1.68,1.07-2.59.77-.59.96-22.22,10.86-22.6,7.54l21.76-7.61c.57-1.23,1.85-1.1,2.68-1.77,1.08-.87,2.34-.26,3.42-.7.89-.36,1.62-1.55,2.68-1.77.76-.16,1.89-.49,2.59-.77.89-.63,1.6-1.47,2.68-1.77,2.73-.76,5.21-2.23,7.85-3.31,2.87-1.17,5.51-4.16,8.77-4.23.99-.24,1.8-2.61,3.53-1.58-.38,1.8-1.95,1.25-2.69,1.66ZM85.44,151.63l23.64-7.62c5.6-1.49,11.15-1.48,16.77-2.96,3.78-1,7.37.88,11.32-1-.3-1.24-1.7-.88-2.43-1.65,1.7-2.12,3.35-.25,5.04-.34l13.29-.74c12.42-.69,26.67-.71,38.72,3.64,4.5,1.62,11.01,2.68,12.9,8.75.86,2.75-3.27,6.81-5.11,8.67-12.98,13.09-27.91,20.83-43.55,28.23-20.48,9.69-40.89,16.66-62.05,24.11l-39.36,10.53" fill="#040000"/>
    <g clip-path="url(#clippath)">
      <line x1="82.11" y1="281.6" x2="1.56" y2="163.51" fill="#040000" stroke="#6cc4bf" stroke-miterlimit="10" stroke-width="4"/>
      <line x1="92.04" y1="278.44" x2="11.49" y2="160.35" fill="#040000" stroke="#6cc4bf" stroke-miterlimit="10" stroke-width="4"/>
      <line x1="96.42" y1="267.16" x2="15.88" y2="149.07" fill="#040000" stroke="#6cc4bf" stroke-miterlimit="10" stroke-width="4"/>
      <line x1="104.68" y1="261.55" x2="24.14" y2="143.46" fill="#040000" stroke="#6cc4bf" stroke-miterlimit="10" stroke-width="4"/>
    </g>
  </g>
</svg>